<?xml version="1.0" encoding="utf-8"?>
<!-- Generator: Adobe Illustrator 22.1.0, SVG Export Plug-In . SVG Version: 6.00 Build 0)  -->
<svg version="1.1" id="s1" xmlns="http://www.w3.org/2000/svg" xmlns:xlink="http://www.w3.org/1999/xlink" x="0px" y="0px"
	 viewBox="0 0 16 16" style="enable-background:new 0 0 16 16;" xml:space="preserve">
<style type="text/css">
	.st0{fill:#880000;}
	.st1{fill:none;stroke:#880000;stroke-width:5.337262e-02;stroke-miterlimit:10;}
</style>
<g id="g1" transform="matrix(1.8288872,0,0,-1.8288872,-29.199695,629.1997)">
	<g id="g2" transform="scale(1,-1)">
		<path id="p1" class="st0" d="M20.2-338.5c-0.1-0.1-0.5-0.7-0.5-0.7l0.3,0.8l-0.9,0.1l0.9,0.1l-0.4,0.7c0,0,0.4-0.5,0.5-0.5
			c0,1,0,1.3,0,1.3s-2.3-1-1-3.4c0,0-1.6-1.7-0.1-2.8c0,0-2.4,1.5-0.9,4c0,0-1.3-1.2-0.6-2.5c0,0-1.2,1.6,0.3,3.4
			c0,0-0.4-0.2-0.7-1.1c0,0,0.2,2.7,3.3,2.7c0,0,0,0,0,0c0,0,0,0,0,0c0,0,0,0,0,0c0,0,0,0,0,0c3,0,3.3-2.7,3.3-2.7
			c-0.3,0.9-0.7,1.1-0.7,1.1c1.4-1.8,0.3-3.4,0.3-3.4c0.7,1.3-0.6,2.5-0.6,2.5c1.5-2.5-0.9-4-0.9-4c1.4,1.1-0.1,2.8-0.1,2.8
			c1.3,2.3-1,3.4-1,3.4s0-0.2,0-1.3c0.1,0.1,0.5,0.5,0.5,0.5l-0.4-0.7l0.9-0.1l-0.9-0.1l0.3-0.8c0,0-0.4,0.6-0.5,0.7
			c0-1.3-0.1-4.5-0.1-4.5c0,0,0,0,0,0s0,0,0,0c0,0,0,0,0,0s0,0,0,0C20.3-342.9,20.3-339.7,20.2-338.5L20.2-338.5z"/>
		<path id="p2" class="st1" d="M20.3-343.9c-2.3,0-4.2,1.9-4.2,4.2s1.9,4.2,4.2,4.2c2.3,0,4.2-1.9,4.2-4.2S22.7-343.9,20.3-343.9
			L20.3-343.9z"/>
		<path id="p3" class="st0" d="M20.3-343.4c2.1,0,3.7,1.7,3.7,3.7c0,2.1-1.7,3.7-3.7,3.7c-2.1,0-3.7-1.7-3.7-3.7
			C16.6-341.7,18.3-343.4,20.3-343.4L20.3-343.4z M20.3-343.9c-2.3,0-4.2,1.9-4.2,4.2c0,2.3,1.9,4.2,4.2,4.2c2.3,0,4.2-1.9,4.2-4.2
			C24.6-342,22.7-343.9,20.3-343.9L20.3-343.9z"/>
	</g>
</g>
</svg>
