<?xml version="1.0" encoding="utf-8"?>
<!-- Generator: Adobe Illustrator 22.1.0, SVG Export Plug-In . SVG Version: 6.00 Build 0)  -->
<svg version="1.1" id="s1" xmlns="http://www.w3.org/2000/svg" xmlns:xlink="http://www.w3.org/1999/xlink" x="0px" y="0px"
	 viewBox="0 0 24 24" style="enable-background:new 0 0 24 24;" xml:space="preserve">
<style type="text/css">
	.st0{fill:#880000;}
	.st1{fill:none;stroke:#880000;stroke-width:5.337262e-02;stroke-miterlimit:10;}
</style>
<g id="g1" transform="matrix(1.8288872,0,0,-1.8288872,-29.199695,629.1997)">
	<g id="g2" transform="scale(1,-1)">
		<path id="p1" class="st0" d="M22.4-335.7c-0.1-0.2-0.7-1-0.7-1l0.4,1.2l-1.4,0.2l1.4,0.2l-0.5,1c0,0,0.7-0.7,0.7-0.8
			c0,1.5,0,1.9,0,1.9s-3.4-1.6-1.5-5c0,0-2.3-2.6-0.2-4.1c0,0-3.6,2.2-1.3,5.9c0,0-1.9-1.8-0.9-3.7c0,0-1.7,2.4,0.4,5.1
			c0,0-0.6-0.4-1.1-1.7c0,0,0.4,4,4.8,4c0,0,0,0,0,0c0,0,0,0,0,0c0,0,0,0,0,0c0,0,0,0,0,0c4.5-0.1,4.8-4,4.8-4
			c-0.5,1.3-1.1,1.7-1.1,1.7c2.1-2.7,0.4-5.1,0.4-5.1c1,1.9-0.9,3.7-0.9,3.7c2.3-3.7-1.3-5.9-1.3-5.9c2.1,1.6-0.2,4.1-0.2,4.1
			c1.9,3.4-1.5,5-1.5,5s0-0.4,0-1.9c0.1,0.1,0.7,0.8,0.7,0.8l-0.5-1l1.4-0.2l-1.4-0.2l0.4-1.2c0,0-0.6,0.8-0.7,1
			c0-1.9-0.2-6.6-0.2-6.7c0-0.1,0-0.1,0-0.1s0,0,0,0c0,0,0,0,0,0s0,0,0,0.1C22.5-342.3,22.4-337.6,22.4-335.7L22.4-335.7z"/>
		<path id="p2" class="st1" d="M22.5-343.8c-3.5,0-6.3,2.8-6.3,6.3c0,3.5,2.8,6.3,6.3,6.3c3.5,0,6.3-2.8,6.3-6.3
			C28.8-340.9,26-343.8,22.5-343.8L22.5-343.8z"/>
		<path id="p3" class="st0" d="M22.5-343c3.1,0,5.5,2.5,5.5,5.5c0,3.1-2.5,5.5-5.5,5.5c-3.1,0-5.5-2.5-5.5-5.5
			C17-340.5,19.5-343,22.5-343L22.5-343z M22.5-343.8c-3.5,0-6.3,2.8-6.3,6.3c0,3.5,2.8,6.3,6.3,6.3c3.5,0,6.3-2.8,6.3-6.3
			C28.8-340.9,26-343.8,22.5-343.8L22.5-343.8z"/>
	</g>
</g>
</svg>
